<svg xmlns="http://www.w3.org/2000/svg" width="800" height="220" viewBox="0 0 800 220">
  <g transform="translate(30, 30)">
    <rect x="0" y="0" width="160" height="160" rx="36" fill="#1677FF"/>
    <path d="M 64 38 Q 67 38 67 42 L 67 59 L 90 59 Q 93 59 93 62 L 93 72 Q 93 75 90 75 L 67 75 L 67 104 Q 67 110 74 110 L 88 110 Q 91 110 91 114 L 91 123 Q 91 126 88 126 L 70 126 Q 51 126 51 107 L 51 75 L 43 75 Q 40 75 40 72 L 40 62 Q 40 59 43 59 L 51 59 L 51 42 Q 51 38 54 38 Z" fill="#ffffff"/>
    <rect x="108" y="86" width="5" height="22" rx="1.5" fill="#A7C8FF"/>
    <rect x="99" y="95" width="23" height="5" rx="1.5" fill="#A7C8FF"/>
  </g>
  <text x="220" y="135" font-family="-apple-system, 'Helvetica Neue', Arial, sans-serif" font-size="82" font-weight="500" letter-spacing="-2" fill="#0F172A">Taylent<tspan fill="#1677FF"> AI</tspan></text>
</svg>
