<svg xmlns="http://www.w3.org/2000/svg" width="512" height="512" viewBox="0 0 200 200">
  <path d="M 80 48 Q 84 48 84 52 L 84 74 L 112 74 Q 116 74 116 78 L 116 90 Q 116 94 112 94 L 84 94 L 84 130 Q 84 138 92 138 L 110 138 Q 114 138 114 142 L 114 154 Q 114 158 110 158 L 88 158 Q 64 158 64 134 L 64 94 L 54 94 Q 50 94 50 90 L 50 78 Q 50 74 54 74 L 64 74 L 64 52 Q 64 48 68 48 Z" fill="#1677FF"/>
  <rect x="135" y="108" width="6" height="28" rx="2" fill="#1677FF"/>
  <rect x="124" y="119" width="28" height="6" rx="2" fill="#1677FF"/>
</svg>
